<?xml version="1.0" standalone="no"?>
<!DOCTYPE svg PUBLIC "-//W3C//DTD SVG 20010904//EN"
 "http://www.w3.org/TR/2001/REC-SVG-20010904/DTD/svg10.dtd">
<svg version="1.0" xmlns="http://www.w3.org/2000/svg"
 width="300.000000pt" height="53.000000pt" viewBox="0 0 300.000000 53.000000"
 preserveAspectRatio="xMidYMid meet">

<g transform="translate(0.000000,53.000000) scale(0.100000,-0.100000)"
fill="#FFFFFF" stroke="none">
<path d="M280 480 l0 -40 215 0 215 0 0 -210 0 -210 50 0 50 0 0 210 0 210 81
0 80 0 -3 38 -3 37 -342 3 -343 2 0 -40z"/>
<path d="M1340 270 l0 -250 40 0 40 0 0 250 0 250 -40 0 -40 0 0 -250z"/>
<path d="M1500 270 l0 -250 40 0 40 0 0 250 0 250 -40 0 -40 0 0 -250z"/>
<path d="M117 373 c-4 -3 -7 -24 -7 -45 l0 -38 255 0 255 0 0 45 0 45 -248 0
c-137 0 -252 -3 -255 -7z"/>
<path d="M1025 367 c-106 -41 -149 -161 -96 -265 65 -128 272 -119 327 15 17
39 18 111 3 150 -32 86 -145 134 -234 100z m118 -87 c38 -30 52 -80 34 -123
-38 -91 -151 -89 -178 3 -30 98 68 179 144 120z" />
<path d="M1740 358 c-53 -28 -78 -60 -91 -117 -19 -87 18 -178 86 -211 58 -28
123 -26 168 4 35 24 36 24 42 5 5 -14 16 -19 46 -19 l39 0 0 175 0 175 -41 0
c-32 0 -42 -4 -46 -19 -5 -18 -7 -18 -40 5 -46 31 -104 31 -163 2z m165 -82
c46 -46 45 -129 -2 -166 -32 -25 -99 -27 -129 -2 -83 67 -42 191 64 192 32 0
49 -6 67 -24z" />
<path d="M2255 368 c-16 -6 -37 -17 -46 -24 -21 -19 -29 -17 -29 6 0 17 -7 20
-40 20 l-40 0 0 -175 0 -175 45 0 45 0 0 111 c0 109 0 111 29 140 52 51 121
32 141 -39 5 -20 10 -76 10 -124 l0 -88 41 0 41 0 -4 129 c-3 112 -6 133 -24
157 -45 61 -108 85 -169 62z"/>
<path d="M2760 364 c-73 -31 -94 -107 -42 -157 25 -24 53 -33 158 -53 31 -6
37 -31 13 -55 -25 -25 -73 -22 -134 7 -38 18 -38 18 -57 -6 -25 -31 -20 -41
32 -67 80 -41 206 -26 244 28 20 30 21 88 0 117 -20 29 -65 52 -102 52 -52 0
-92 20 -92 45 0 37 65 48 119 20 26 -13 30 -13 51 10 26 28 20 42 -26 61 -43
18 -120 17 -164 -2z" />
<path d="M2530 195 l0 -175 40 0 40 0 0 175 0 175 -40 0 -40 0 0 -175z"/>
<path d="M10 195 l0 -45 305 0 305 0 0 45 0 45 -305 0 -305 0 0 -45z"/>
</g>
</svg>
